STARTFONT 2.3
FONT -FontForge-Tangerine-Book-R-Normal--28-280-72-72-P-104-ISO10646-1
SIZE 28 72 72  4
FONTBOUNDINGBOX 47 31 -10 -9
COMMENT "Generated by fontforge, http://fontforge.sourceforge.net"
COMMENT "Copyright (c) 2010 by Toshi Omagari. All rights reserved."
STARTPROPERTIES 40
FOUNDRY "FontForge"
FAMILY_NAME "Tangerine"
WEIGHT_NAME "Book"
SLANT "R"
SETWIDTH_NAME "Normal"
ADD_STYLE_NAME ""
PIXEL_SIZE 28
POINT_SIZE 280
RESOLUTION_X 72
RESOLUTION_Y 72
SPACING "P"
AVERAGE_WIDTH 104
CHARSET_REGISTRY "ISO10646"
CHARSET_ENCODING "1"
FONTNAME_REGISTRY ""
CHARSET_COLLECTIONS "ISO10646-1"
BITS_PER_PIXEL 4
FONT_NAME "Tangerine-Regular"
FACE_NAME "Tangerine Regular"
COPYRIGHT "Copyright (c) 2010 by Toshi Omagari. All rights reserved."
FONT_VERSION "1.3"
FONT_ASCENT 21
FONT_DESCENT 7
UNDERLINE_POSITION -3
UNDERLINE_THICKNESS 2
X_HEIGHT 6
CAP_HEIGHT 17
RAW_ASCENT 750
RAW_DESCENT 250
NORM_SPACE 4
RELATIVE_WEIGHT 40
RELATIVE_SETWIDTH 50
SUPERSCRIPT_X 0
SUPERSCRIPT_Y 13
SUPERSCRIPT_SIZE 18
SUBSCRIPT_X 0
SUBSCRIPT_Y 3
SUBSCRIPT_SIZE 18
AVG_LOWERCASE_WIDTH 68
AVG_UPPERCASE_WIDTH 198
ENDPROPERTIES
CHARS 233
STARTCHAR space
ENCODING 32
SWIDTH 150 0
DWIDTH 4 0
BBX 1 1 0 0
BITMAP
00
ENDCHAR
STARTCHAR exclam
ENCODING 33
SWIDTH 189 0
DWIDTH 5 0
BBX 8 16 1 0
BITMAP
00000004
000000A8
000004F2
00000990
00000D20
00004A00
00009300
0001B000
00055000
00090000
00260000
00700000
00100000
00000000
2D100000
69000000
ENDCHAR
STARTCHAR quotedbl
ENCODING 34
SWIDTH 214 0
DWIDTH 6 0
BBX 7 5 1 7
BITMAP
00240420
01D44C10
0860B200
28073000
30030000
ENDCHAR
STARTCHAR numbersign
ENCODING 35
SWIDTH 289 0
DWIDTH 8 0
BBX 9 10 0 0
BITMAP
0000010100
0000911800
0006508200
04AFFEFF50
0037062000
0081180000
4BFEEA9000
0440500000
0701400000
0504000000
ENDCHAR
STARTCHAR dollar
ENCODING 36
SWIDTH 269 0
DWIDTH 8 0
BBX 8 13 0 -2
BITMAP
00000060
00000160
0004CEA1
001D4462
002B1230
000B5000
0003F400
01077C00
26070D00
95521900
4BA45100
02500000
06000000
ENDCHAR
STARTCHAR percent
ENCODING 37
SWIDTH 388 0
DWIDTH 11 0
BBX 11 13 0 -2
BITMAP
000000000410
000000002800
009EA0009000
0842E0082000
2800A0450000
660151803300
4B4508188E20
033063710940
000360A00810
001802C02600
008100BC7000
045000000000
080000000000
ENDCHAR
STARTCHAR ampersand
ENCODING 38
SWIDTH 507 0
DWIDTH 14 0
BBX 14 13 0 0
BITMAP
000004DD100000
0000281C400000
00008109100000
0000A006000000
0000B021000000
00009200000000
00147700001AD7
02702C00018105
1C000B40060000
5B0004C0410000
5D0000AB300000
1E80005BD50013
03BDB9206CEC80
ENDCHAR
STARTCHAR quotesingle
ENCODING 39
SWIDTH 120 0
DWIDTH 3 0
BBX 4 4 1 7
BITMAP
00A7
05A0
1A10
4100
ENDCHAR
STARTCHAR parenleft
ENCODING 40
SWIDTH 250 0
DWIDTH 7 0
BBX 8 21 2 -3
BITMAP
00000061
00000730
00005700
0001B000
000A4000
002C0000
00960000
01E10000
05C00000
09700000
0D400000
1F100000
3D000000
4B000000
4A000000
59000000
48000000
28000000
09000000
09000000
06000000
ENDCHAR
STARTCHAR parenright
ENCODING 41
SWIDTH 276 0
DWIDTH 8 0
BBX 8 21 0 -3
BITMAP
00000060
00000090
00000091
00000083
00000075
00000085
00000095
000000A5
000000D3
000001F1
000003D0
000006A0
00000B50
00001F10
00005A00
0000B300
0003B000
000B2000
00660000
03800000
17000000
ENDCHAR
STARTCHAR asterisk
ENCODING 42
SWIDTH 188 0
DWIDTH 5 0
BBX 5 5 1 6
BITMAP
006200
4289A0
28A300
276400
510500
ENDCHAR
STARTCHAR plus
ENCODING 43
SWIDTH 301 0
DWIDTH 8 0
BBX 7 7 1 1
BITMAP
00007000
00047000
00092000
5FFFFF70
01380000
00730000
00800000
ENDCHAR
STARTCHAR comma
ENCODING 44
SWIDTH 112 0
DWIDTH 3 0
BBX 3 4 0 -2
BITMAP
0850
0950
0900
6100
ENDCHAR
STARTCHAR hyphen
ENCODING 45
SWIDTH 245 0
DWIDTH 7 0
BBX 6 1 1 4
BITMAP
8CDEE2
ENDCHAR
STARTCHAR period
ENCODING 46
SWIDTH 112 0
DWIDTH 3 0
BBX 3 2 0 0
BITMAP
0A50
1C10
ENDCHAR
STARTCHAR slash
ENCODING 47
SWIDTH 210 0
DWIDTH 6 0
BBX 12 20 -1 -2
BITMAP
000000000015
000000000081
000000000360
000000000900
000000006300
000000018000
000000081000
000000270000
000000900000
000004500000
000009000000
000063000000
000180000000
000810000000
002700000000
009100000000
045000000000
0A0000000000
640000000000
200000000000
ENDCHAR
STARTCHAR zero
ENCODING 48
SWIDTH 349 0
DWIDTH 10 0
BBX 9 9 1 0
BITMAP
0004BED500
0078229E10
0460000D40
0A00000950
3900000920
6800000900
6A00006300
2F50065000
05DDA30000
ENDCHAR
STARTCHAR one
ENCODING 49
SWIDTH 189 0
DWIDTH 5 0
BBX 6 9 1 0
BITMAP
0136B4
0EBEA0
002E10
009700
01E100
089000
0E3000
6D0000
B60000
ENDCHAR
STARTCHAR two
ENCODING 50
SWIDTH 277 0
DWIDTH 8 0
BBX 8 9 0 0
BITMAP
0003AEC1
003601C8
00600098
000000B3
00000580
00005600
00273000
06B31051
769DED60
ENDCHAR
STARTCHAR three
ENCODING 51
SWIDTH 253 0
DWIDTH 7 0
BBX 10 14 -2 -5
BITMAP
0000179D70
00006003F2
00000000F2
00000004B0
0000006910
00017C7000
000312BA00
0000001E40
0000000C60
0000000C40
0000001C00
200000A400
76114B5000
1CEC810000
ENDCHAR
STARTCHAR four
ENCODING 52
SWIDTH 363 0
DWIDTH 10 0
BBX 12 15 1 0
BITMAP
000000000005
0000000002B2
000000006E40
000000178900
00000261D100
000036078000
0003500D1000
004500590000
035000C30000
2C6323C03600
557ADFFD8000
00000E300000
00004D000000
000099000000
0000C3000000
ENDCHAR
STARTCHAR five
ENCODING 53
SWIDTH 250 0
DWIDTH 7 0
BBX 11 15 -2 -5
BITMAP
000000000220
000006FFFE10
000009543100
000034000000
000070000000
0000B2000000
0000BE400000
000019F30000
000000BA0000
0000005C0000
0000004B0000
000000850000
000002B00000
A3016A100000
5EEB60000000
ENDCHAR
STARTCHAR six
ENCODING 54
SWIDTH 296 0
DWIDTH 8 0
BBX 12 14 1 0
BITMAP
00000029DE80
0000068302A2
000073000001
000740000000
003800000000
00B101000000
0699CF600000
0C9106E00000
2E1001F20000
690000E00000
870003A00000
890008200000
6D1064000000
1BEA30000000
ENDCHAR
STARTCHAR seven
ENCODING 55
SWIDTH 326 0
DWIDTH 9 0
BBX 12 14 -1 -5
BITMAP
0001CEFEDA94
0008510014B0
000600000A30
001100005800
00000002B000
0000000B2000
000000960000
000006900000
00004C000000
0003D2000000
001D40000000
00B800000000
06D000000000
2C3000000000
ENDCHAR
STARTCHAR eight
ENCODING 56
SWIDTH 305 0
DWIDTH 9 0
BBX 9 14 1 0
BITMAP
0000024200
0000767D60
00075004D0
000C4001C0
000B800660
0005F45600
0001CF4000
00761AC000
0B2001E500
680000A800
B500008700
C60000A200
8D20065000
19EC920000
ENDCHAR
STARTCHAR nine
ENCODING 57
SWIDTH 304 0
DWIDTH 9 0
BBX 11 13 -2 -4
BITMAP
00000137C600
000023002F20
000090000D50
000480000E40
000960002F20
000B7000AE00
0008D218D900
0001BEC4D300
00000005A000
0000000B2000
000000840000
26114A400000
09ED81000000
ENDCHAR
STARTCHAR colon
ENCODING 58
SWIDTH 156 0
DWIDTH 4 0
BBX 4 7 0 0
BITMAP
004B
0095
0000
0000
0000
1D10
5900
ENDCHAR
STARTCHAR semicolon
ENCODING 59
SWIDTH 156 0
DWIDTH 4 0
BBX 5 10 -1 -3
BITMAP
0004B0
000960
000000
000000
000000
009200
00C300
00A000
062000
110000
ENDCHAR
STARTCHAR less
ENCODING 60
SWIDTH 301 0
DWIDTH 8 0
BBX 8 6 1 1
BITMAP
00000272
00169710
18830000
3DB30000
007EB300
00019B00
ENDCHAR
STARTCHAR equal
ENCODING 61
SWIDTH 301 0
DWIDTH 8 0
BBX 7 4 1 2
BITMAP
1DFFFFD0
00000000
00000000
AFFFFF20
ENDCHAR
STARTCHAR greater
ENCODING 62
SWIDTH 301 0
DWIDTH 8 0
BBX 8 6 0 1
BITMAP
00420000
002AA200
00003A91
000028C4
016B9400
1A610000
ENDCHAR
STARTCHAR question
ENCODING 63
SWIDTH 285 0
DWIDTH 8 0
BBX 10 15 1 0
BITMAP
000006CD90
00008415E7
000520007B
000000005A
0000000086
00000002B0
0000003A10
0000177000
0003810000
0038000000
00B3000000
00AA000000
0000000000
1D10000000
6900000000
ENDCHAR
STARTCHAR at
ENCODING 64
SWIDTH 492 0
DWIDTH 14 0
BBX 12 13 1 -3
BITMAP
00005BEFD600
001B72114B90
01A2000000A4
0830068BA128
1A0072076009
5603701D0018
8409408A0053
940A66880270
8606D45EA600
4B0000031000
0D5000000150
03E710003600
0029DCA94000
ENDCHAR
STARTCHAR A
ENCODING 65
SWIDTH 996 0
DWIDTH 28 0
BBX 28 18 1 0
BITMAP
0000000000000006ABDDDB852000
00000000000001730000148CFD81
0000000000000600000000004DA0
0000000000004100000000048B10
0000000000005000000000666500
000000000000400000000750C000
0000000000000000000075067000
00000000000000000007400B1000
00000000000000000074001C0000
0000000000000000065000680000
00000000000009FFFFFEEEE50000
0200000000000001910000A30000
0700000000000028000000D20000
5300000000000370000000F10000
8500000000007500000000F10000
7C10000000592000000000F30040
1ED632359B500000000000CB4720
03BEFEC9400000000000004EB200
ENDCHAR
STARTCHAR B
ENCODING 66
SWIDTH 638 0
DWIDTH 18 0
BBX 18 19 1 0
BITMAP
000000000000153000
00000001579DDC8100
00000055104702AE40
0000052001B0000BD0
0000410009400003F3
000020001C000000F4
0000000068000002E1
00000000B300001B50
00000001D007A88300
0000000690017E8000
0000000A300002D800
0000001C0000004F20
000000750000000D70
000001A00000000A80
100008200000000A70
CC6662000000000D30
19F600000000006A00
003BC500000006A100
000027A87766740000
ENDCHAR
STARTCHAR C
ENCODING 67
SWIDTH 557 0
DWIDTH 16 0
BBX 16 18 2 0
BITMAP
000000156789BB81
00001651000003D9
0002810000000045
0029000000000050
01B1000000000000
0860000000000000
1E10000000000000
6B00000000000000
B800000000000000
E600000000000000
F600000000000000
F700000000000000
E900000000000000
AE00000000004200
3F60000000008000
08E2000000058000
008E5000005E1000
00029A8779830000
ENDCHAR
STARTCHAR D
ENCODING 68
SWIDTH 799 0
DWIDTH 22 0
BBX 23 19 0 0
BITMAP
000000000000000000320000
000000039ACDDA5057200000
00000075000028DEA0000000
000007200000008AEA100000
00002400000004C01CC10000
0000500000000C3001CA0000
0000200000004C00002E6000
000000000000A6000006E100
000000000001E1000000D700
000000000005B00000007D00
00000000000B500000002F10
00000000001D000000000E30
000000000078000000000D30
0000000000C1000000000D10
000000000760000000001B00
000000002A00000000006500
027ADDC8A100000000018000
0900005ACD84100000460000
1D977530026ACCCB97200000
ENDCHAR
STARTCHAR E
ENCODING 69
SWIDTH 494 0
DWIDTH 14 0
BBX 15 18 1 0
BITMAP
000000025679B500
0000006500003E30
000003A000000700
0000089000000200
000007D100000000
000001DD50000000
0000016EE4000000
0001652000000000
0027000000000000
01A0000000000000
0860000000000000
0E20000000000000
3F10000000000000
4F10000000024000
3F40000000071000
0DB0000000290000
03E9000004D20000
0029B87776100000
ENDCHAR
STARTCHAR F
ENCODING 70
SWIDTH 626 0
DWIDTH 18 0
BBX 22 18 1 0
BITMAP
00000000028BCEFFFFEB73
0000000057200002452244
0000000420000000600000
0000001400000006500000
000000300000000D000000
000000000000005A000000
00000000000000A6000000
00000000000000E2000000
00000000000003C0000000
000000007FFFFFFED70000
0000000000000A50000000
0000000000001D00000000
0710000000008500000000
550000000002A000000000
85000000000A1000000000
7A00000000820000000000
1E92000157100000000000
02ADDCA830000000000000
ENDCHAR
STARTCHAR G
ENCODING 71
SWIDTH 571 0
DWIDTH 16 0
BBX 21 23 -1 -5
BITMAP
000000000000005ADFE800
0000000000004A73115E50
0000000000075000000850
0000000000820000000810
0000000008300000001500
0000000047000000000000
00000000C1000000000000
0000000690000000000000
0000000C50000000000000
0000001F20000000000000
0000004F00000000000000
0000005F00000007600000
0000005F1000002F300000
0000002F600000BD000000
00000007E40145A8000000
05300000377620E1000000
5700000000000690000000
C300000000000C10000000
F300000000007500000000
E500000000038000000000
AB00000000370000000000
1D90000016500000000000
018B977650000000000000
ENDCHAR
STARTCHAR H
ENCODING 72
SWIDTH 865 0
DWIDTH 24 0
BBX 32 19 1 0
BITMAP
0000000000000000000000000004AED1
00000000179BCDC83000000000762183
000000027200002B5000000007100020
00000006000001B10000000071000000
00000023000008600000000620000000
0000003200001E100000002700000000
0000000100007A00000000A100000000
000000000000C6000000047000000000
000000000002F20000000B1000000000
000000000007C00000003B0000000000
0000059CEEEFA4200000950000000000
0007B841000E78ACDA85E10000000000
01A50000004B0000047CFB1000000000
0920000000B400000008810000000000
3700000004A00000000C400000000000
840000001B100000001F100000000000
86000001A3000000004E004000000000
4E40016A20000000005F572000000000
07DEDA5000000000001DC20000000000
ENDCHAR
STARTCHAR I
ENCODING 73
SWIDTH 554 0
DWIDTH 16 0
BBX 20 18 1 0
BITMAP
00000000000000027BD6
00000000000002995920
00000000000049109100
00000000000460058000
000000000036000C2000
000000000070002D0000
00000000042000780000
00000000060000B40000
00000000050001E00000
00000000060006900000
0000000006000B200000
0000000005002A000000
016100000053A5100000
0A100000000570000000
68000000003900000000
8B000000048000000000
2EA31126A60000000000
03BEFDB6100000000000
ENDCHAR
STARTCHAR J
ENCODING 74
SWIDTH 634 0
DWIDTH 18 0
BBX 23 23 0 -5
BITMAP
00000000000000000015ADB0
000000000000000007B68500
000000000000000194056000
0000000000000019101B0000
000000000000008000670000
000000000000061000C20000
000000000000060002D00000
000000000000510006900000
00000000000050000B400000
00000000000050001E000000
000000000000500059000000
0000000000001300A3000000
0000003300000222D3000000
000044100000000850000000
002610000000001B00000000
026000000000008400000000
080000000000038000000000
6400000000001A1000000000
C10000000000920000000000
E10000000009200000000000
D60000000392000000000000
6E620126A600000000000000
06DFEDA50000000000000000
ENDCHAR
STARTCHAR K
ENCODING 75
SWIDTH 936 0
DWIDTH 26 0
BBX 27 18 1 0
BITMAP
00000000017BCEEC94000006CE80
0000000058400013C70003A623C0
0000000540000008300067000050
0000002500000049000730000000
00000060000000A4007200000000
00000050000001E0062000000000
00000050000005B0540000000000
0000005000000883600000000000
0000004000000B69700000000000
0000000000000E25B00000000000
0000000000003D01F10000000000
0150000000007700B60000000000
091000000000B2006C0000000000
47000000000470001F3000000000
870000000019000009B000000000
7B0000000181000001E700000000
2E81000166000000004F81026000
04BECA97100000000003BEC70000
ENDCHAR
STARTCHAR L
ENCODING 76
SWIDTH 657 0
DWIDTH 18 0
BBX 21 18 0 0
BITMAP
00000000000000018DEA00
0000000000000037203E40
0000000000000350000830
0000000000001800000600
0000000000008200000100
000000000001A000000000
0000000000076000000000
00000000000D1000000000
00000000004C0000000000
0000000000880000000000
0000000000D30000000000
0000000003D00000000000
0000000008800000000000
000000001E200000000000
03BEEC8398000000010000
0B3348EFD1000000060000
1C0000236C942103820000
07C98510017CEFD9200000
ENDCHAR
STARTCHAR M
ENCODING 77
SWIDTH 1219 0
DWIDTH 34 0
BBX 36 18 1 0
BITMAP
00000000000017ABCDDB8510000000000291
000000000003720000148CFC820000007D20
00000000001500000000001BB0000018D400
00000000005000000000003F200001788000
0000000000500000000000AA0000172D1000
0000000000300000000006A4000170A60000
0000000000000000000045C0001802D00000
000000000000000000026680007108800000
000000000000000000080B3006100D200000
016000000000000000812D0053003D000000
091000000000000006306A03700069000000
49000000000000006400A609000097000000
78000000000000065000D2720000B5000000
89000000000000840002E4500000D4000000
6E100000000029300004B8000000D5000000
1E900000000791000007E3000000C7004000
05FB410148A400000009A00000009E473000
003AEFDC830000000009200000002DC30000
ENDCHAR
STARTCHAR N
ENCODING 78
SWIDTH 990 0
DWIDTH 28 0
BBX 35 18 1 0
BITMAP
0000000003ADED820200000000000007DD30
000000005610049E96000000000000B94790
0000000240000003DA000000000009600050
00000000000000008C900000000057000000
000000000000000091C70000000190000000
0000000000000000802E3000000620000000
00000000000000036005D000000700000000
00000000000000071000B700005200000000
000000000000000700003E10007000000000
000000000000003500000B70025000000000
0520000000000070000004D0050000000000
1800000000000250000000C5060000000000
64000000000008000000007A060000000000
85000000000062000000001E330000000000
7A000000000550000000000BA10000000000
2F7000000196000000000006D00000000000
06FC64459C30000000000002C00000000000
003ADFDB5000000000000000800000000000
ENDCHAR
STARTCHAR O
ENCODING 79
SWIDTH 606 0
DWIDTH 17 0
BBX 17 18 2 0
BITMAP
00000017BEFD920000
000006942015CF4000
00018300000009E200
00181000000000C900
008100000000006E00
055000000000002F20
0B0000000000000E30
490000000000000E20
950000000000000F10
D30000000000001C00
E20000000000005800
F3000000000000A200
F60000000000038000
CA0000000000091000
7F3000000000820000
1DD200000018200000
02DE83113781000000
0017CEEC8300000000
ENDCHAR
STARTCHAR P
ENCODING 80
SWIDTH 783 0
DWIDTH 22 0
BBX 24 19 1 0
BITMAP
000000000000000000540000
0000000000001799AEDA3000
00000000000661009306E800
000000000061000490002E70
000000000500000C200006E1
000000002200003C000000F5
0000000050000097000000C6
00000000200000D3000000C5
00000000000003D0000001E2
0000000000004790000006A0
0000000000004D3000003C20
0030000000002E610017A200
060000000000853898730000
430000000001C00000000000
810000000008300000000000
830000000037000000000000
5C0000000270000000000000
0BB300016500000000000000
007DDCA71000000000000000
ENDCHAR
STARTCHAR Q
ENCODING 81
SWIDTH 563 0
DWIDTH 16 0
BBX 21 23 1 -5
BITMAP
0000000455689300000000
0000024000003D60000000
00003300000003F3000000
00016000000000BA000000
000800000000006E000000
002700000000004F100000
008300000000003F100000
00C000000000005E000000
00E000000000007C000000
01E00000000000B7000000
00F10000000002E1000000
00C6000000000A70000000
005E300000005C00000000
0006EB700003D100000000
00000000005B2000000000
0000000029910000000000
0551126AA3000000000000
27BFF96100000000000000
00018C7100000000000000
0000017D71000000000000
000000018D820000000510
00000000018EB621138300
0000000000017CEFD92000
ENDCHAR
STARTCHAR R
ENCODING 82
SWIDTH 854 0
DWIDTH 24 0
BBX 23 19 1 0
BITMAP
000000000000000005400000
000000000000379ADCD60000
000000000036400A202CA000
00000000053000680001E500
00000000510000D200008A00
00000001200005B000005C00
0000000000000A6000006900
0000000000001F2000009300
0000000000005C0000037000
000000000000A80213650000
000000000000E24E53000000
000000000004B01F20000000
02300000000A400D50000000
16000000002B000990000000
6200000000930004E0000000
9100000004600000E5000000
85000000370000007D100000
3D400027500000000BC30160
04CECB7100000000019ED810
ENDCHAR
STARTCHAR S
ENCODING 83
SWIDTH 480 0
DWIDTH 13 0
BBX 14 18 1 0
BITMAP
000000003ACD90
000000046001B8
00000009000039
00000039000043
0000003C000010
0000001E400000
00000008D00000
00000001D90000
000000003F4000
0000000008D000
0000000001E500
00200000007B00
09100000003D00
68000000002C00
88000000004800
7D100000009100
1CC30000172000
017CBA98600000
ENDCHAR
STARTCHAR T
ENCODING 84
SWIDTH 577 0
DWIDTH 16 0
BBX 22 18 1 0
BITMAP
000000016BDFFEDB963000
0000004A620012469CFEB5
0000047000000000066473
0000170000000000830000
0000510000000007500000
000050000000002B000000
00005000000000A4000000
00002000000002D0000000
0000000000000890000000
0000000000000D30000000
0000000000004D00000000
0000000000009600000000
051000000002D000000000
3700000000094000000000
8700000000480000000000
7C00000003800000000000
2EA3000376000000000000
03AEECB710000000000000
ENDCHAR
STARTCHAR U
ENCODING 85
SWIDTH 752 0
DWIDTH 21 0
BBX 22 18 2 0
BITMAP
00017BDEDB7200000000B6
0048300025D300000006C0
0440000007200000000D30
1500000063000000005B00
500000046000000000C400
600000190000000004D000
50000092000000000C7000
500003A0000000005F1000
5000094000000000CB0000
10001D0000000006C60000
00005A0000000017E10000
0000970000000075C00000
0000C50000000448800000
0000D4000000160B500000
0000E5000001700D300000
0000D8000017000E301400
00008E512780000DA57000
00001AEEA3000007E90000
ENDCHAR
STARTCHAR V
ENCODING 86
SWIDTH 661 0
DWIDTH 19 0
BBX 19 18 2 0
BITMAP
0004BDEA2000001AE900
0066002AE20000614D80
03400000AA00000005D0
060000002F20000001F0
320000000B60000000D0
500000000780000002B0
5000000004A000000660
1000000003B000000A10
0000000002B000004600
0000000002B000018000
0000000003A000081000
00000000058000720000
00000000075007200000
000000000A3082000000
000000000D1920000000
000000003DA100000000
000000008C1000000000
00000000A10000000000
ENDCHAR
STARTCHAR W
ENCODING 87
SWIDTH 822 0
DWIDTH 23 0
BBX 25 18 2 0
BITMAP
0018DFD800000000000004E700
0283117F800000006000066E00
07000007E10000085000000E10
51000000D40000660000000E00
50000000960003E00000000D00
50000000570018C00000003900
30000000480065B00000008300
00000000470435B00000019000
00000000550604C00000082000
00000000635103D00000450000
00000000825002E00002700000
00000000860001F00018000000
00000000950000F10081000000
00000003A00000E30710000000
00000008500000D36200000000
0000000C000000C65000000000
00000038000000D90000000000
00000072000000B10000000000
ENDCHAR
STARTCHAR X
ENCODING 88
SWIDTH 813 0
DWIDTH 23 0
BBX 23 18 1 0
BITMAP
0000000008E500000017CE60
00000000727C000005C86BA0
00000004301F100079100280
00000002000D300670000340
00000000000A503800000200
000000000008709000000000
000000000005973000000000
000000000003C80000000000
000000000000F10000000000
000000000004E30000000000
000000000007870000000000
0000000000624C0000000000
0010000002600E3000000000
061000001800099000000000
19000000810002E300000000
6A0000292000007D20000600
8F7349A10000000AD5118100
1AEEB500000000006DEC3000
ENDCHAR
STARTCHAR Y
ENCODING 89
SWIDTH 662 0
DWIDTH 19 0
BBX 25 22 0 -4
BITMAP
00000000017CC0000000000B40
000000001711F2000000005D00
000000003001F100000000D600
000000000004C000000006D000
000000000008800000001E6000
00000000000D300000009D0000
00000000002D00000003F60000
0000000000780000000DD00000
0000000000B40000007F500000
0000000000E1000004AC000000
0000000003C0000046E4000000
0002661006B0000459A0000000
0065000005E313843E10000000
0830000001AED810C600000000
3900000000000007A000000000
850000000000002D1000000000
B4000000000001C30000000000
B600000000000A500000000000
9A0000000001A5000000000000
3F500000003B40000000000000
07F831025A9100000000000000
004BEFEB720000000000000000
ENDCHAR
STARTCHAR Z
ENCODING 90
SWIDTH 625 0
DWIDTH 18 0
BBX 19 18 1 0
BITMAP
000000006CEFDC962260
000000087201247AEE30
00000027000000008300
00000060000000092000
00000040000001920000
00000000000019200000
00000000000191000000
00000000001910000000
00000000029100000000
00000000291000000000
00000003910000000000
0000003A000000000000
00000490000000000000
00004900000000013000
00059000000000070000
00590000000000530000
06EDC96421014A600000
580037ADEFFD93000000
ENDCHAR
STARTCHAR bracketleft
ENCODING 91
SWIDTH 318 0
DWIDTH 9 0
BBX 10 20 2 -3
BITMAP
00001F7676
00005D0000
0000890000
0000B60000
0000E20000
0003D00000
0007900000
000B500000
000E200000
003D000000
0079000000
00B6000000
00E2000000
03E0000000
07A0000000
0B70000000
0E40000000
3F10000000
7D00000000
AD77500000
ENDCHAR
STARTCHAR backslash
ENCODING 92
SWIDTH 212 0
DWIDTH 6 0
BBX 5 20 0 -2
BITMAP
150000
080000
080000
080000
071000
044000
017000
008000
008000
008100
005400
002700
000900
000900
000810
000540
000270
000090
000090
000010
ENDCHAR
STARTCHAR bracketright
ENCODING 93
SWIDTH 339 0
DWIDTH 9 0
BBX 11 20 0 -3
BITMAP
00000277AF10
000000007D00
00000000A900
00000000D500
00000001F100
00000004C000
000000089000
0000000B5000
0000000E1000
0000003D0000
000000790000
000000B50000
000000E20000
000003D00000
000007900000
00000B600000
00000E200000
00004E000000
00007B000000
3777D7000000
ENDCHAR
STARTCHAR asciicircum
ENCODING 94
SWIDTH 272 0
DWIDTH 8 0
BBX 6 7 1 5
BITMAP
000010
0004A0
000DE0
0088D3
03B088
0A103D
62000A
ENDCHAR
STARTCHAR underscore
ENCODING 95
SWIDTH 356 0
DWIDTH 10 0
BBX 10 2 -1 -2
BITMAP
0001111221
2CCA988775
ENDCHAR
STARTCHAR grave
ENCODING 96
SWIDTH 155 0
DWIDTH 4 0
BBX 4 3 0 9
BITMAP
0500
2D80
0174
ENDCHAR
STARTCHAR a
ENCODING 97
SWIDTH 294 0
DWIDTH 8 0
BBX 8 7 0 0
BITMAP
0006CFDA
009912B4
05A001B0
0C300960
1F004D20
1F363E04
0AC30C71
ENDCHAR
STARTCHAR b
ENCODING 98
SWIDTH 247 0
DWIDTH 7 0
BBX 14 21 1 0
BITMAP
0000000003ADE4
00000000771029
00000006200002
00000051000000
00000330000000
00000600000000
00005100000000
00006000000000
00062000000000
00080000000000
00540000000000
00A00000000000
02900000000000
08500000000000
0C28D600000000
3D505A00000000
7B003900000000
A5007400000000
D2008000000000
F1181000000000
BD810000000000
ENDCHAR
STARTCHAR c
ENCODING 99
SWIDTH 203 0
DWIDTH 6 0
BBX 6 7 0 0
BITMAP
001599
006017
063000
0C0000
1E0001
2F1160
0AD800
ENDCHAR
STARTCHAR d
ENCODING 100
SWIDTH 285 0
DWIDTH 8 0
BBX 18 21 0 0
BITMAP
000000000000002AE9
000000000000048328
000000000000350000
000000000002500000
000000000006000000
000000000041000000
000000000140000000
000000000600000000
000000002500000000
000000007000000000
000000017000000000
000000082000000000
0000000A0000000000
000000470000000000
000435D20000000000
008101D00000000000
056006A00000000000
0C100D600000000000
1E006D300000000000
2F263E250000000000
0BC30CA10000000000
ENDCHAR
STARTCHAR e
ENCODING 101
SWIDTH 206 0
DWIDTH 6 0
BBX 6 7 0 0
BITMAP
0016C6
00507A
065671
0C4000
1E0000
2F2041
09D920
ENDCHAR
STARTCHAR f
ENCODING 102
SWIDTH 156 0
DWIDTH 4 0
BBX 24 28 -9 -7
BITMAP
00000000000000000002AED2
000000000000000000572178
000000000000000005300004
000000000000000035000000
000000000000000080000000
000000000000000720000000
000000000000001900000000
000000000000008400000000
00000000000001C000000000
000000000000067000000000
0000000000000C2000000000
0000000000003C0000000000
000000000000870000000000
000000000000D20000000000
0000000001CFFEC900000000
000000000005A00000000000
00000000000B500000000000
00000000001E000000000000
000000000069000000000000
0000000000B3000000000000
0000000002B0000000000000
000000000940000000000000
000000001A00000000000000
000000008200000000000000
000000036000000000000000
020000170000000000000000
180002600000000000000000
0AB873000000000000000000
ENDCHAR
STARTCHAR g
ENCODING 103
SWIDTH 210 0
DWIDTH 6 0
BBX 11 15 -4 -7
BITMAP
000000000330
0000005DF400
00000350B500
000009008200
00000B006000
00000E242000
000009E90000
000000090000
0000001F1000
0281000B8000
0D100003E000
2F100000E100
1E600001D000
07F8202A5000
004CEEC40000
ENDCHAR
STARTCHAR h
ENCODING 104
SWIDTH 292 0
DWIDTH 8 0
BBX 16 21 0 0
BITMAP
000000000004ADD3
0000000000740077
0000000006100012
0000000060000000
0000000520000000
0000002500000000
0000008000000000
0000045000000000
0000090000000000
0000460000000000
0000A00000000000
0002800000000000
0009300000000000
000B000000000000
005805CA00000000
00A341A700000000
01D402E100000000
05B2078000000000
09800A4000000000
0D200C3400000000
3A000AA200000000
ENDCHAR
STARTCHAR i
ENCODING 105
SWIDTH 149 0
DWIDTH 4 0
BBX 5 11 1 0
BITMAP
000050
000710
003400
000000
049000
4A4000
1C0000
670000
B20000
E14000
D90000
ENDCHAR
STARTCHAR j
ENCODING 106
SWIDTH 136 0
DWIDTH 4 0
BBX 15 18 -9 -7
BITMAP
0000000000000140
0000000000001700
0000000000006100
0000000000000000
0000000000076000
00000000005C3000
00000000001E0000
0000000000590000
0000000000A40000
0000000000D00000
0000000005700000
000000000A100000
0000000038000000
0000000091000000
0000000540000000
3000003500000000
5300044000000000
1BA8620000000000
ENDCHAR
STARTCHAR k
ENCODING 107
SWIDTH 259 0
DWIDTH 7 0
BBX 16 21 0 0
BITMAP
000000000006BDC1
0000000002830094
0000000026000031
0000000160000000
0000000700000000
0000006100000000
0000026000000000
0000080000000000
0000360000000000
0000900000000000
0002800000000000
0009200000000000
000B000000000000
0057000000000000
00A369B000000000
00C401D000000000
04C1184000000000
088C510000000000
0B39500000000000
0E04C00100000000
3A009B6000000000
ENDCHAR
STARTCHAR l
ENCODING 108
SWIDTH 134 0
DWIDTH 4 0
BBX 14 21 0 0
BITMAP
00000000005CE3
00000000088475
00000000830000
00000005300000
00000025000000
00000060000000
00000420000000
00000600000000
00005200000000
00007000000000
00044000000000
00090000000000
00270000000000
00820000000000
00B00000000000
04900000000000
08500000000000
0C200000000000
0F000000000000
2F050000000000
0E910000000000
ENDCHAR
STARTCHAR m
ENCODING 109
SWIDTH 413 0
DWIDTH 12 0
BBX 12 7 0 0
BITMAP
02A726D027C0
039730E222D0
00D602D406A0
02E106C00B50
07700B401E10
0C102D004C00
2A0077003B01
ENDCHAR
STARTCHAR n
ENCODING 110
SWIDTH 291 0
DWIDTH 8 0
BBX 8 7 0 0
BITMAP
02C605C8
068540A6
00C401D1
02D10780
07700B40
0D100D24
49000AB2
ENDCHAR
STARTCHAR o
ENCODING 111
SWIDTH 225 0
DWIDTH 6 0
BBX 6 7 0 0
BITMAP
001AE8
00914F
06200E
0B001A
2B0063
1E2370
0AE800
ENDCHAR
STARTCHAR p
ENCODING 112
SWIDTH 261 0
DWIDTH 7 0
BBX 8 15 -1 -7
BITMAP
0004D000
0026B089
0005401F
000A001E
0036003B
008100A4
01C12980
06EEC500
0B200000
1C000000
58000000
85000000
B2000000
D1000000
D8300000
ENDCHAR
STARTCHAR q
ENCODING 113
SWIDTH 269 0
DWIDTH 8 0
BBX 8 14 0 -7
BITMAP
000445A8
00720095
066003B0
0D000B40
3C007D00
4D179600
1DA1D100
0004B000
00096000
000D2000
002D0000
006B0000
00990000
009C5000
ENDCHAR
STARTCHAR r
ENCODING 114
SWIDTH 195 0
DWIDTH 5 0
BBX 6 7 1 0
BITMAP
4C45E6
397422
0B6000
0E1000
4A0000
950000
D10000
ENDCHAR
STARTCHAR s
ENCODING 115
SWIDTH 188 0
DWIDTH 5 0
BBX 6 7 0 0
BITMAP
007682
01D040
00D300
005D00
200C40
900940
A66700
ENDCHAR
STARTCHAR t
ENCODING 116
SWIDTH 171 0
DWIDTH 5 0
BBX 5 11 1 0
BITMAP
000330
001C10
007600
01D000
5BFD90
0C5000
2E0000
690000
A50000
C41500
7D6000
ENDCHAR
STARTCHAR u
ENCODING 117
SWIDTH 299 0
DWIDTH 8 0
BBX 8 7 0 0
BITMAP
0039002A
04C300A4
03A003D0
09500890
0E204860
1F141963
0DA106D4
ENDCHAR
STARTCHAR v
ENCODING 118
SWIDTH 271 0
DWIDTH 8 0
BBX 7 7 1 0
BITMAP
4C603B40
28700660
0A500920
0D202900
2D018100
69271000
B8300000
ENDCHAR
STARTCHAR w
ENCODING 119
SWIDTH 369 0
DWIDTH 10 0
BBX 10 7 0 0
BITMAP
19C00130AA
10E109201C
00C22C0008
00C35B0006
00D53A0032
00E23A0240
02801DA500
ENDCHAR
STARTCHAR x
ENCODING 120
SWIDTH 263 0
DWIDTH 7 0
BBX 9 7 -1 0
BITMAP
000A606E70
0035856160
0003B60010
0001E00000
0103C20000
15355A0310
2D7009B400
ENDCHAR
STARTCHAR y
ENCODING 121
SWIDTH 280 0
DWIDTH 8 0
BBX 13 14 -5 -7
BITMAP
000000049002B0
0000003B300870
0000002B002E20
00000085009C00
000000C2059600
000000E132D100
000000C923A000
00000000094000
000000001C0000
32000000750000
A0000001A00000
D0000008100000
A7000172000000
1AB97610000000
ENDCHAR
STARTCHAR z
ENCODING 122
SWIDTH 238 0
DWIDTH 7 0
BBX 8 7 -1 0
BITMAP
001ADDA8
00400280
00002700
00026000
00260011
03A10060
198DDB30
ENDCHAR
STARTCHAR braceleft
ENCODING 123
SWIDTH 291 0
DWIDTH 8 0
BBX 9 21 2 -3
BITMAP
0000002540
00000A7100
0000870000
0000E10000
0003C00000
0005A00000
0006800000
0008600000
000C100000
0075000000
2D80000000
02F2000000
00D3000000
01E0000000
0790000000
0D30000000
3D00000000
8900000000
9800000000
5C10000000
0485000000
ENDCHAR
STARTCHAR bar
ENCODING 124
SWIDTH 162 0
DWIDTH 5 0
BBX 1 25 2 -7
BITMAP
90
90
90
90
90
90
90
90
90
90
90
90
90
90
90
90
90
90
90
90
90
90
90
90
90
ENDCHAR
STARTCHAR braceright
ENCODING 125
SWIDTH 285 0
DWIDTH 8 0
BBX 9 21 0 -3
BITMAP
0000064000
0000016D10
0000000C60
0000000B50
0000000E20
0000005C00
000000A500
000001E000
000005A000
000006C000
000001CB00
0000048200
00002B0000
0000870000
0000B40000
0000D20000
0000E00000
0003D00000
0008700000
005B100000
6750000000
ENDCHAR
STARTCHAR asciitilde
ENCODING 126
SWIDTH 383 0
DWIDTH 11 0
BBX 9 4 1 3
BITMAP
0000000010
03CEA41370
36139EE800
1000000000
ENDCHAR
STARTCHAR space.dup1
ENCODING 160
SWIDTH 150 0
DWIDTH 4 0
BBX 1 1 0 0
BITMAP
00
ENDCHAR
STARTCHAR exclamdown
ENCODING 161
SWIDTH 189 0
DWIDTH 5 0
BBX 9 16 -3 -9
BITMAP
0000001D10
0000006A00
0000000000
0000001000
0000044000
0000080000
0000260000
0000910000
0002A00000
0008400000
001D000000
0079000000
00E4000000
06E0000000
0D60000000
1300000000
ENDCHAR
STARTCHAR cent
ENCODING 162
SWIDTH 194 0
DWIDTH 5 0
BBX 6 13 0 -2
BITMAP
000007
000034
0019EA
01827A
071710
1A0800
596300
7AA000
4E6010
070000
250000
700000
400000
ENDCHAR
STARTCHAR sterling
ENCODING 163
SWIDTH 344 0
DWIDTH 10 0
BBX 10 9 0 0
BITMAP
0000005DD1
0000054094
0000180011
0000740000
0038D65300
0002A00000
0007400000
27CD710030
A766BEEA10
ENDCHAR
STARTCHAR currency
ENCODING 164
SWIDTH 344 0
DWIDTH 10 0
BBX 10 9 0 0
BITMAP
0063000065
001CCECA60
0029315C00
0090000A00
0180000900
0180000800
00A2018100
05BDDBC000
4700005500
ENDCHAR
STARTCHAR yen
ENCODING 165
SWIDTH 309 0
DWIDTH 9 0
BBX 10 9 0 0
BITMAP
05C50049C1
002C044011
000C240000
000B600000
06CEFF5000
001D100000
1BCFFC0000
0067000000
0087100000
ENDCHAR
STARTCHAR brokenbar
ENCODING 166
SWIDTH 162 0
DWIDTH 5 0
BBX 1 25 2 -7
BITMAP
90
90
90
90
90
90
90
90
90
20
00
00
00
00
00
20
90
90
90
90
90
90
90
90
90
ENDCHAR
STARTCHAR section
ENCODING 167
SWIDTH 395 0
DWIDTH 11 0
BBX 16 22 -2 -7
BITMAP
0000000000257500
000000003AB66BC0
00000005680000C4
0000002973000092
00000083B1000050
000000C1B2000000
000000E0A4000000
000000F187000000
000000E36A000000
000000C62E000000
000000990E200000
0000005C0B600000
0000001F17900000
0000000D45C00000
0000000974D00000
0000000693D00000
03300004A3B00000
0A000003A5800000
5B0000047A200000
5E10000767000000
1CD4127B60000000
017BBA7100000000
ENDCHAR
STARTCHAR dieresis
ENCODING 168
SWIDTH 174 0
DWIDTH 5 0
BBX 5 2 0 9
BITMAP
180630
590D10
ENDCHAR
STARTCHAR copyright
ENCODING 169
SWIDTH 331 0
DWIDTH 9 0
BBX 8 8 1 3
BITMAP
00003200
00220370
04166935
15710208
43900026
35585281
0B412830
01797100
ENDCHAR
STARTCHAR ordfeminine
ENCODING 170
SWIDTH 226 0
DWIDTH 6 0
BBX 5 4 1 5
BITMAP
049C40
180800
632800
583A10
ENDCHAR
STARTCHAR guillemotleft
ENCODING 171
SWIDTH 289 0
DWIDTH 8 0
BBX 9 7 0 0
BITMAP
0000541E50
001834F300
02817F1000
3B0AF00000
2D76FA0000
02D66F8000
003A0BE000
ENDCHAR
STARTCHAR logicalnot
ENCODING 172
SWIDTH 265 0
DWIDTH 7 0
BBX 7 5 0 3
BITMAP
00111110
7FEDDEA0
00000960
00000D10
00003800
ENDCHAR
STARTCHAR registered
ENCODING 174
SWIDTH 331 0
DWIDTH 9 0
BBX 8 7 1 3
BITMAP
00123450
03378344
05061608
43466017
45819272
1B302770
05CCB600
ENDCHAR
STARTCHAR degree
ENCODING 176
SWIDTH 104 0
DWIDTH 3 0
BBX 3 3 2 8
BITMAP
3880
6060
7940
ENDCHAR
STARTCHAR plusminus
ENCODING 177
SWIDTH 301 0
DWIDTH 8 0
BBX 8 8 0 0
BITMAP
00000800
00004700
00009200
05FFFFF7
00028000
00072000
00030000
59999820
ENDCHAR
STARTCHAR twosuperior
ENCODING 178
SWIDTH 215 0
DWIDTH 6 0
BBX 5 5 1 4
BITMAP
017C20
030630
001800
026000
4AA710
ENDCHAR
STARTCHAR threesuperior
ENCODING 179
SWIDTH 190 0
DWIDTH 5 0
BBX 4 5 1 4
BITMAP
0476
0044
0396
0028
6761
ENDCHAR
STARTCHAR acute
ENCODING 180
SWIDTH 157 0
DWIDTH 4 0
BBX 4 3 0 8
BITMAP
00C9
1BD3
5810
ENDCHAR
STARTCHAR mu
ENCODING 181
SWIDTH 324 0
DWIDTH 9 0
BBX 10 12 -1 -5
BITMAP
0000570057
0001D101D1
0008600890
001E103B40
007C014D20
00CB260E22
049C800AB2
0940000000
0E10000000
3D00000000
6A00000000
1000000000
ENDCHAR
STARTCHAR paragraph
ENCODING 182
SWIDTH 392 0
DWIDTH 11 0
BBX 15 16 -3 -7
BITMAP
000000000169BC70
000000018FD09600
0000001CFF90D200
000000AFFF52D000
000002FFFF169000
000005FFFC0A5000
000005FFF81E1000
000001DFF35A0000
0000002AE0A50000
0000000291E10000
0000000846900000
0200000B0D200000
3800004678000000
87000084B0000000
7C00079900000000
09C9A93000000000
ENDCHAR
STARTCHAR periodcentered
ENCODING 183
SWIDTH 112 0
DWIDTH 3 0
BBX 3 2 0 3
BITMAP
0A50
1C10
ENDCHAR
STARTCHAR cedilla
ENCODING 184
SWIDTH 115 0
DWIDTH 3 0
BBX 3 3 0 -3
BITMAP
0340
0630
1500
ENDCHAR
STARTCHAR onesuperior
ENCODING 185
SWIDTH 174 0
DWIDTH 5 0
BBX 3 5 1 4
BITMAP
3DE0
0470
0900
2900
6300
ENDCHAR
STARTCHAR ordmasculine
ENCODING 186
SWIDTH 178 0
DWIDTH 5 0
BBX 4 4 1 5
BITMAP
07D2
3453
8040
6610
ENDCHAR
STARTCHAR guillemotright
ENCODING 187
SWIDTH 276 0
DWIDTH 8 0
BBX 9 7 -1 0
BITMAP
00C51D2000
005E19B000
0008C2B900
0001B23B10
0038147000
0560640000
5406300000
ENDCHAR
STARTCHAR onequarter
ENCODING 188
SWIDTH 435 0
DWIDTH 12 0
BBX 11 12 1 -2
BITMAP
000000000600
004940008200
013A00073000
008300650000
01B004600040
066028001B20
0C1190025800
01091001D100
008204CFC300
064000082000
460000000000
100000000000
ENDCHAR
STARTCHAR onehalf
ENCODING 189
SWIDTH 434 0
DWIDTH 12 0
BBX 11 12 1 -2
BITMAP
000000000600
003940009300
013A00074000
007400650000
00B004728B30
066028060580
0B1190010740
010910005500
008200262100
064006AA9600
460000000000
100000000000
ENDCHAR
STARTCHAR threequarters
ENCODING 190
SWIDTH 476 0
DWIDTH 13 0
BBX 12 12 1 -2
BITMAP
000000000060
016960000740
010460006500
016B20047000
000580280037
2005419005C1
475409116460
000082181A30
000740248A20
004600007300
028000000000
010000000000
ENDCHAR
STARTCHAR questiondown
ENCODING 191
SWIDTH 285 0
DWIDTH 8 0
BBX 10 14 -2 -7
BITMAP
000000004B
00000000A6
0000000000
0000004E20
0000000C10
0000006400
0000481000
0029400000
03A0000000
1C10000000
4B00000000
6C00007000
2F82282000
05CD920000
ENDCHAR
STARTCHAR Agrave
ENCODING 192
SWIDTH 996 0
DWIDTH 28 0
BBX 28 21 1 0
BITMAP
000000000000000000000007C200
0000000000000000000000003960
0000000000000000000000000000
0000000000000006ABDDDB852000
00000000000001730000148CFD81
0000000000000600000000004DA0
0000000000004100000000048B10
0000000000005000000000666500
000000000000400000000750C000
0000000000000000000075067000
00000000000000000007400B1000
00000000000000000074001C0000
0000000000000000065000680000
00000000000009FFFFFEEEE50000
0200000000000001910000A30000
0700000000000028000000D20000
5300000000000370000000F10000
8500000000007500000000F10000
7C10000000592000000000F30040
1ED632359B500000000000CB4720
03BEFEC9400000000000004EB200
ENDCHAR
STARTCHAR Aacute
ENCODING 193
SWIDTH 996 0
DWIDTH 28 0
BBX 28 22 1 0
BITMAP
0000000000000000000000000022
00000000000000000000000004E7
0000000000000000000000006710
0000000000000000000000000000
0000000000000006ABDDDB852000
00000000000001730000148CFD81
0000000000000600000000004DA0
0000000000004100000000048B10
0000000000005000000000666500
000000000000400000000750C000
0000000000000000000075067000
00000000000000000007400B1000
00000000000000000074001C0000
0000000000000000065000680000
00000000000009FFFFFEEEE50000
0200000000000001910000A30000
0700000000000028000000D20000
5300000000000370000000F10000
8500000000007500000000F10000
7C10000000592000000000F30040
1ED632359B500000000000CB4720
03BEFEC9400000000000004EB200
ENDCHAR
STARTCHAR Acircumflex
ENCODING 194
SWIDTH 996 0
DWIDTH 28 0
BBX 29 22 1 0
BITMAP
000000000000000000000000001000
000000000000000000000000007300
000000000000000000000001300950
000000000000000000000000000000
0000000000000006ABDDDB85200000
00000000000001730000148CFD8100
0000000000000600000000004DA000
0000000000004100000000048B1000
000000000000500000000066650000
000000000000400000000750C00000
000000000000000000007506700000
00000000000000000007400B100000
00000000000000000074001C000000
000000000000000006500068000000
00000000000009FFFFFEEEE5000000
0200000000000001910000A3000000
0700000000000028000000D2000000
5300000000000370000000F1000000
8500000000007500000000F1000000
7C10000000592000000000F3004000
1ED632359B500000000000CB472000
03BEFEC9400000000000004EB20000
ENDCHAR
STARTCHAR Atilde
ENCODING 195
SWIDTH 996 0
DWIDTH 28 0
BBX 30 22 1 0
BITMAP
000000000000000000000000000001
000000000000000000000000AD2023
00000000000000000000000545D770
000000000000000000000000002610
0000000000000006ABDDDB85200000
00000000000001730000148CFD8100
0000000000000600000000004DA000
0000000000004100000000048B1000
000000000000500000000066650000
000000000000400000000750C00000
000000000000000000007506700000
00000000000000000007400B100000
00000000000000000074001C000000
000000000000000006500068000000
00000000000009FFFFFEEEE5000000
0200000000000001910000A3000000
0700000000000028000000D2000000
5300000000000370000000F1000000
8500000000007500000000F1000000
7C10000000592000000000F3004000
1ED632359B500000000000CB472000
03BEFEC9400000000000004EB20000
ENDCHAR
STARTCHAR Adieresis
ENCODING 196
SWIDTH 996 0
DWIDTH 28 0
BBX 29 21 1 0
BITMAP
000000000000000000000000051420
0000000000000000000000000D1C10
000000000000000000000000000000
0000000000000006ABDDDB85200000
00000000000001730000148CFD8100
0000000000000600000000004DA000
0000000000004100000000048B1000
000000000000500000000066650000
000000000000400000000750C00000
000000000000000000007506700000
00000000000000000007400B100000
00000000000000000074001C000000
000000000000000006500068000000
00000000000009FFFFFEEEE5000000
0200000000000001910000A3000000
0700000000000028000000D2000000
5300000000000370000000F1000000
8500000000007500000000F1000000
7C10000000592000000000F3004000
1ED632359B500000000000CB472000
03BEFEC9400000000000004EB20000
ENDCHAR
STARTCHAR Aring
ENCODING 197
SWIDTH 996 0
DWIDTH 28 0
BBX 28 22 1 0
BITMAP
0000000000000000000000000191
0000000000000000000000000406
0000000000000000000000000815
0000000000000000000000000130
0000000000000006ABDDDB852000
00000000000001730000148CFD81
0000000000000600000000004DA0
0000000000004100000000048B10
0000000000005000000000666500
000000000000400000000750C000
0000000000000000000075067000
00000000000000000007400B1000
00000000000000000074001C0000
0000000000000000065000680000
00000000000009FFFFFEEEE50000
0200000000000001910000A30000
0700000000000028000000D20000
5300000000000370000000F10000
8500000000007500000000F10000
7C10000000592000000000F30040
1ED632359B500000000000CB4720
03BEFEC9400000000000004EB200
ENDCHAR
STARTCHAR AE
ENCODING 198
SWIDTH 1271 0
DWIDTH 36 0
BBX 36 18 1 0
BITMAP
0000000000000006ABDDDB85100003678BA3
00000000000001730000148CFC806500006E
0000000000000600000000004DB2B0000008
0000000000004100000000049B27A0000003
0000000000005000000000673907D0000000
000000000000400000000760A301EB200000
000000000000000000008501C0017FE10000
000000000000000000075005827521000000
000000000000000000750009770000000000
00000000000000000650000D900000000000
00000000000004EFFFFFFFFF300000000000
02000000000000029100002E000000000000
17000000000000291000004D000000000000
54000000000004800000004D000000000510
85000000000076000000004F100000000800
7C100000005A30000000001E800000005600
1ED632359B50000000000006F6000006C100
02AEFEC940000000000000004BB877850000
ENDCHAR
STARTCHAR Ccedilla
ENCODING 199
SWIDTH 557 0
DWIDTH 16 0
BBX 16 21 2 -3
BITMAP
000000156779BC81
00001640000003D8
0002700000000055
0038000000000040
01A0000000000000
0950000000000000
2D00000000000000
7A00000000000000
B700000000000000
E600000000000000
F600000000000000
F700000000000000
DB00000000002200
9F20000000007000
2FA0000000019000
05F80000001C4000
004DC52015CA0000
000048AA64100000
0000004400000000
0000005300000000
0000024000000000
ENDCHAR
STARTCHAR Egrave
ENCODING 200
SWIDTH 463 0
DWIDTH 13 0
BBX 15 21 0 0
BITMAP
0000000004D40000
0000000000288000
0000000000000000
000000015679B600
0000004700002D50
000001C000000620
000006B000000200
000005E200000000
000000CE61000000
0000005EF5000000
0000563100000000
0017100000000000
00A1000000000000
0680000000000000
0D40000000000000
1F30000000000000
2F30000000005000
1F60000000062000
0BD00000001A0000
02EA100003C40000
0019C97776100000
ENDCHAR
STARTCHAR Eacute
ENCODING 201
SWIDTH 463 0
DWIDTH 13 0
BBX 15 22 0 0
BITMAP
0000000000001000
000000000009C200
0000000002850000
0000000000000000
000000015679B600
0000004700002D50
000001C000000620
000006B000000200
000005E200000000
000000CE61000000
0000005EF5000000
0000563100000000
0017100000000000
00A1000000000000
0680000000000000
0D40000000000000
1F30000000000000
2F30000000005000
1F60000000062000
0BD00000001A0000
02EA100003C40000
0019C97776100000
ENDCHAR
STARTCHAR Ecircumflex
ENCODING 202
SWIDTH 463 0
DWIDTH 13 0
BBX 15 22 0 0
BITMAP
0000000000010000
0000000000091000
000000002202A200
0000000000000000
000000015679B600
0000004700002D50
000001C000000620
000006B000000200
000005E200000000
000000CE61000000
0000005EF5000000
0000563100000000
0017100000000000
00A1000000000000
0680000000000000
0D40000000000000
1F30000000000000
2F30000000005000
1F60000000062000
0BD00000001A0000
02EA100003C40000
0019C97776100000
ENDCHAR
STARTCHAR Edieresis
ENCODING 203
SWIDTH 463 0
DWIDTH 13 0
BBX 15 21 0 0
BITMAP
0000000000605100
0000000002C0C000
0000000000000000
000000015679B600
0000004700002D50
000001C000000620
000006B000000200
000005E200000000
000000CE61000000
0000005EF5000000
0000563100000000
0017100000000000
00A1000000000000
0680000000000000
0D40000000000000
1F30000000000000
2F30000000005000
1F60000000062000
0BD00000001A0000
02EA100003C40000
0019C97776100000
ENDCHAR
STARTCHAR Igrave
ENCODING 204
SWIDTH 514 0
DWIDTH 14 0
BBX 20 22 0 0
BITMAP
00000000000001500000
00000000000003E90000
0000000000000019A000
00000000000000001100
00000000000000038CD5
00000000000002A96820
0000000000005810A100
00000000000650076000
000000000044000D1000
000000000160004B0000
00000000051000970000
00000000060000D20000
00000000050002C00000
00000000140007700000
0000000005000C100000
00000000050048000000
026000000152B4000000
19000000000760000000
86000000004700000000
AA000000057000000000
4F931136A40000000000
04BEFDA5000000000000
ENDCHAR
STARTCHAR Iacute
ENCODING 205
SWIDTH 514 0
DWIDTH 14 0
BBX 20 21 0 0
BITMAP
00000000000000008900
00000000000000297100
00000000000000200000
00000000000000038CD5
00000000000002A96820
0000000000005810A100
00000000000650076000
000000000044000D1000
000000000160004B0000
00000000051000970000
00000000060000D20000
00000000050002C00000
00000000140007700000
0000000005000C100000
00000000050048000000
026000000152B4000000
19000000000760000000
86000000004700000000
AA000000057000000000
4F931136A40000000000
04BEFDA5000000000000
ENDCHAR
STARTCHAR Icircumflex
ENCODING 206
SWIDTH 514 0
DWIDTH 14 0
BBX 20 22 0 0
BITMAP
00000000000000001000
00000000000000004600
00000000000000410680
00000000000000000000
00000000000000038CD5
00000000000002A96820
0000000000005810A100
00000000000650076000
000000000044000D1000
000000000160004B0000
00000000051000970000
00000000060000D20000
00000000050002C00000
00000000140007700000
0000000005000C100000
00000000050048000000
026000000152B4000000
19000000000760000000
86000000004700000000
AA000000057000000000
4F931136A40000000000
04BEFDA5000000000000
ENDCHAR
STARTCHAR Idieresis
ENCODING 207
SWIDTH 514 0
DWIDTH 14 0
BBX 20 21 0 0
BITMAP
00000000000000051420
000000000000000D1C20
00000000000000000000
00000000000000038CD5
00000000000002A96820
0000000000005810A100
00000000000650076000
000000000044000D1000
000000000160004B0000
00000000051000970000
00000000060000D20000
00000000050002C00000
00000000140007700000
0000000005000C100000
00000000050048000000
026000000152B4000000
19000000000760000000
86000000004700000000
AA000000057000000000
4F931136A40000000000
04BEFDA5000000000000
ENDCHAR
STARTCHAR Eth
ENCODING 208
SWIDTH 800 0
DWIDTH 22 0
BBX 23 19 0 0
BITMAP
000000000000000000320000
000000048ABCDA5057200000
00000074000016BDA0000000
00000610000000916A100000
000032000000066004B10000
0000400000001D00005B0000
0000100000007800000A7000
000000000000D3000002E100
000000000003D0000000A800
000000000009800000005D00
0000000027CFEFFD00002F20
00000002A64E210000000E30
000000000079000000000D30
0000000000D2000000000D10
000000000680000000001C00
000010001C10000000005500
027BDEC8A200000000017000
0A00005ACB62000000250000
1D977630026ABAA875200000
ENDCHAR
STARTCHAR Ntilde
ENCODING 209
SWIDTH 796 0
DWIDTH 22 0
BBX 35 22 -4 0
BITMAP
000000000000000000000000000100000000
0000000000000000000000AB104100000000
0000000000000000000005FFC76000000000
000000000000000000000837960000000000
0000000006CEEB60200000000000002BEA00
00000001840016CCB0000000000003C65B30
0000000510000007E400000000002B100140
0000000000000000CE3000000000A1000000
000000000000000364E20000000540000000
0000000000000006307B0000000800000000
0000000000000008000C6000005200000000
00000000000000080003E100007000000000
000000000000003400009800034000000000
000000000000008000002E10060000000000
070000000000016000000A70060000000000
7200000000000710000004E0240000000000
B000000000003500000000D4510000000000
D00000000001800000000089500000000000
D4000000001910000000003E600000000000
8D20000003A100000000000D700000000000
1BE95446B910000000000008600000000000
006CEEC93000000000000004400000000000
ENDCHAR
STARTCHAR Ograve
ENCODING 210
SWIDTH 608 0
DWIDTH 17 0
BBX 17 21 2 0
BITMAP
000000008C20000000
000000000495000000
000000000000000000
00000017BEFEA20000
000006952014BF5000
00008300000008F200
00081000000000CA00
007100000000005F00
046000000000001F30
0A0000000000000D40
390000000000000D30
860000000000000E10
C40000000000001D00
D30000000000004800
E40000000000009200
E60000000000029000
BB0000000000091000
6F4000000000730000
0CE300000018300000
02DF93112781000000
0017CEEC9300000000
ENDCHAR
STARTCHAR Oacute
ENCODING 211
SWIDTH 608 0
DWIDTH 17 0
BBX 17 22 2 0
BITMAP
000000000001000000
00000000009D200000
000000002850000000
000000000000000000
00000017BEFEA20000
000006952014BF5000
00008300000008F200
00081000000000CA00
007100000000005F00
046000000000001F30
0A0000000000000D40
390000000000000D30
860000000000000E10
C40000000000001D00
D30000000000004800
E40000000000009200
E60000000000029000
BB0000000000091000
6F4000000000730000
0CE300000018300000
02DF93112781000000
0017CEEC9300000000
ENDCHAR
STARTCHAR Ocircumflex
ENCODING 212
SWIDTH 608 0
DWIDTH 17 0
BBX 17 22 2 0
BITMAP
000000000010000000
0000000003C7000000
000000005508A00000
000000000000000000
00000017BEFEA20000
000006952014BF5000
00008300000008F200
00081000000000CA00
007100000000005F00
046000000000001F30
0A0000000000000D40
390000000000000D30
860000000000000E10
C40000000000001D00
D30000000000004800
E40000000000009200
E60000000000029000
BB0000000000091000
6F4000000000730000
0CE300000018300000
02DF93112781000000
0017CEEC9300000000
ENDCHAR
STARTCHAR Otilde
ENCODING 213
SWIDTH 608 0
DWIDTH 17 0
BBX 17 22 2 0
BITMAP
000000000000010000
000000005E70040000
00000001CBFD800000
000000021021000000
00000017BEFEA20000
000006952014BF5000
00008300000008F200
00081000000000CA00
007100000000005F00
046000000000001F30
0A0000000000000D40
390000000000000D30
860000000000000E10
C40000000000001D00
D30000000000004800
E40000000000009200
E60000000000029000
BB0000000000091000
6F4000000000730000
0CE300000018300000
02DF93112781000000
0017CEEC9300000000
ENDCHAR
STARTCHAR Odieresis
ENCODING 214
SWIDTH 608 0
DWIDTH 17 0
BBX 17 21 2 0
BITMAP
000000000423300000
000000000C2A300000
000000000000000000
00000017BEFEA20000
000006952014BF5000
00008300000008F200
00081000000000CA00
007100000000005F00
046000000000001F30
0A0000000000000D40
390000000000000D30
860000000000000E10
C40000000000001D00
D30000000000004800
E40000000000009200
E60000000000029000
BB0000000000091000
6F4000000000730000
0CE300000018300000
02DF93112781000000
0017CEEC9300000000
ENDCHAR
STARTCHAR multiply
ENCODING 215
SWIDTH 301 0
DWIDTH 8 0
BBX 7 7 1 0
BITMAP
00900760
00723600
00174000
00473000
03508000
39007100
10000000
ENDCHAR
STARTCHAR Oslash
ENCODING 216
SWIDTH 605 0
DWIDTH 17 0
BBX 17 20 2 -1
BITMAP
000000000000001000
00000017BEFC663000
000007942025CD2000
00019300000247D100
00191000000600C700
009100000061005D00
056000000420001F10
0B0000001400000F20
490000005000000E20
950000051000000F10
D30000330000002D00
F20001400000006800
F3000500000000B200
F50041000000039000
C902300000000A1000
7E2500000000830000
1DE300000018300000
06DF83113781000000
1707CFEC8300000000
400000000000000000
ENDCHAR
STARTCHAR Ugrave
ENCODING 217
SWIDTH 717 0
DWIDTH 20 0
BBX 22 21 1 0
BITMAP
0000000000000260000000
000000000000029B200000
0000000000000001500000
00017BCEDB7200000000B7
0048300025D400000005C0
0350000006300000000C40
0600000063000000004B00
510000046000000000B500
6000001A0000000004D000
50000083000000000B7000
500002A0000000004F2000
5000094000000000BC0000
10000D0000000005C60000
00004B0000000017E20000
0000880000000074D00000
0000B60000000347900000
0000D5000000160A600000
0000D6000000700C400000
0000C9000017100D401400
00008F512780000DA58000
000019EEA4000006E91000
ENDCHAR
STARTCHAR Uacute
ENCODING 218
SWIDTH 717 0
DWIDTH 20 0
BBX 22 21 1 0
BITMAP
0000000000000000271000
0000000000000004C70000
0000000000000024000000
00017BCEDB7200000000B7
0048300025D400000005C0
0350000006300000000C40
0600000063000000004B00
510000046000000000B500
6000001A0000000004D000
50000083000000000B7000
500002A0000000004F2000
5000094000000000BC0000
10000D0000000005C60000
00004B0000000017E20000
0000880000000074D00000
0000B60000000347900000
0000D5000000160A600000
0000D6000000700C400000
0000C9000017100D401400
00008F512780000DA58000
000019EEA4000006E91000
ENDCHAR
STARTCHAR Ucircumflex
ENCODING 219
SWIDTH 718 0
DWIDTH 20 0
BBX 22 21 1 0
BITMAP
0000000000000009A00000
00000000000003616B2000
0000000000000000000000
00017BCEDB7200000000B7
0048300025D400000005C0
0350000006300000000C40
0600000063000000004B00
510000046000000000B500
6000001A0000000004D000
50000083000000000B7000
500002A0000000004F2000
5000094000000000BC0000
10000D0000000005C60000
00004B0000000017E20000
0000880000000075D00000
0000B60000000348900000
0000D5000000160A600000
0000D6000000700C400000
0000C9000017100E401400
00008F512780000DA58000
000019EEA4000006E91000
ENDCHAR
STARTCHAR Udieresis
ENCODING 220
SWIDTH 718 0
DWIDTH 20 0
BBX 22 21 1 0
BITMAP
0000000000000033240000
00000000000000B3940000
0000000000000000000000
00017BCEDB7200000000B7
0048300025D400000005C0
0350000006300000000C40
0600000063000000004B00
510000046000000000B500
6000001A0000000004D000
50000083000000000B7000
500002A0000000004F2000
5000094000000000BC0000
10000D0000000005C60000
00004B0000000017E20000
0000880000000074D00000
0000B60000000347900000
0000D5000000160A600000
0000D6000000700C400000
0000C9000017100D401400
00008F512780000DA58000
000019EEA4000006E91000
ENDCHAR
STARTCHAR Yacute
ENCODING 221
SWIDTH 662 0
DWIDTH 19 0
BBX 25 25 0 -4
BITMAP
0000000000000000004E400000
000000000000000003D5000000
00000000000000002910000000
00000000017CC0000000000B40
000000001711F2000000005D00
000000003001F100000000D600
000000000004C000000006D000
000000000008800000001E6000
00000000000D300000009D0000
00000000002D00000003F60000
0000000000780000000DD00000
0000000000B40000007F500000
0000000000E1000004AC000000
0000000003C0000046E4000000
0002661006B0000459A0000000
0065000005E313843E10000000
0830000001AED810C600000000
3900000000000007A000000000
850000000000002D1000000000
B4000000000001C30000000000
B600000000000A500000000000
9A0000000001A5000000000000
3F500000003B40000000000000
07F831025A9100000000000000
004BEFEB720000000000000000
ENDCHAR
STARTCHAR Thorn
ENCODING 222
SWIDTH 745 0
DWIDTH 21 0
BBX 21 20 1 0
BITMAP
0000000000000000000200
0000000000000000027300
0000000000000000290000
0000000000000000B10000
0000000000000007700000
00000000000048AFEC6000
000000000006305C27FA00
00000000006100B7003F70
00000000023001F30009C0
00000000010004E00005E0
00000000000009900004D0
0000000000000E300007A0
0230000000004C00000C30
060000000001A500009600
520000000005E212573000
8100000000093332000000
8400000000470000000000
4B00000003700000000000
0AC4000276000000000000
006DEDC710000000000000
ENDCHAR
STARTCHAR germandbls
ENCODING 223
SWIDTH 304 0
DWIDTH 9 0
BBX 25 27 -10 -7
BITMAP
00000000000000000000025C40
000000000000000000110005D0
000000000000000000000004E0
000000000000000020000006B0
00000000000000013000001D50
0000000000000005000000AA00
000000000000002500001AA000
00000000000000800003D70000
0000000000000180007D400000
00000000000007301BA1000000
0000000000000B01C700000000
0000000000002A0A9000000000
000000000000760F1000000000
000000000000B21D0000000000
000000000001C00B1000000000
00000000000590048000000000
0000000000094000A200000000
00000000000C00006800000000
0000000000390621B700000000
00000000009309EEA100000000
0000000000A000000000000000
00000000054000000000000000
00000000080000000000000000
00000000520000000000000000
10000003400000000000000000
18000044000000000000000000
07DB9710000000000000000000
ENDCHAR
STARTCHAR agrave
ENCODING 224
SWIDTH 294 0
DWIDTH 8 0
BBX 8 12 0 0
BITMAP
00001500
00003D70
00000174
00000000
00000000
0006CFDA
009912B4
05A001B0
0C300960
1F004D20
1F363E04
0AC30C71
ENDCHAR
STARTCHAR aacute
ENCODING 225
SWIDTH 294 0
DWIDTH 8 0
BBX 9 11 0 0
BITMAP
0000008D10
000007E500
00002B2000
0000000000
0006CFDA00
009912B400
05A001B000
0C30096000
1F004D2000
1F363E0400
0AC30C7100
ENDCHAR
STARTCHAR acircumflex
ENCODING 226
SWIDTH 294 0
DWIDTH 8 0
BBX 9 12 0 0
BITMAP
0000079000
0000637A10
0000000000
0000000000
0000000000
0006CFDA00
009912B400
05A001B000
0C30096000
1F004D2000
1F363E0400
0AC30C7100
ENDCHAR
STARTCHAR atilde
ENCODING 227
SWIDTH 294 0
DWIDTH 8 0
BBX 9 11 0 0
BITMAP
0000CA2520
000529E700
0000000000
0000000000
0006CFDA00
009912B400
05A001B000
0C30096000
1F004D2000
1F363E0400
0AC30C7100
ENDCHAR
STARTCHAR adieresis
ENCODING 228
SWIDTH 284 0
DWIDTH 8 0
BBX 8 11 0 0
BITMAP
00004518
0000B368
00000000
00000000
0006CFDA
009912B4
05A001B0
0C300960
1F004D20
1F363E04
0AC30C71
ENDCHAR
STARTCHAR aring
ENCODING 229
SWIDTH 294 0
DWIDTH 8 0
BBX 8 11 0 0
BITMAP
00000690
00001680
00001E70
00000000
0006CFDA
009912B4
05A001B0
0C300960
1F004D20
1F363E04
0AC30C71
ENDCHAR
STARTCHAR ae
ENCODING 230
SWIDTH 363 0
DWIDTH 10 0
BBX 11 8 0 0
BITMAP
000000070000
000448B7AC00
007101D11E10
054007957300
0C001C810000
1D006B400000
1F272B702300
0BC204EA5000
ENDCHAR
STARTCHAR ccedilla
ENCODING 231
SWIDTH 203 0
DWIDTH 6 0
BBX 6 11 0 -4
BITMAP
001499
006027
063000
0C0000
1D0001
2E1160
0BE800
008000
00A000
016000
050000
ENDCHAR
STARTCHAR egrave
ENCODING 232
SWIDTH 206 0
DWIDTH 6 0
BBX 7 12 0 0
BITMAP
00023000
0006E300
00002810
00000000
00000000
0016C600
00507A00
06567100
0C400000
1E000000
2F204100
09D92000
ENDCHAR
STARTCHAR eacute
ENCODING 233
SWIDTH 206 0
DWIDTH 6 0
BBX 7 11 0 0
BITMAP
00000BA0
0000AD30
00049100
00000000
0016C600
00507A00
06567100
0C400000
1E000000
2F204100
09D92000
ENDCHAR
STARTCHAR ecircumflex
ENCODING 234
SWIDTH 206 0
DWIDTH 6 0
BBX 7 12 0 0
BITMAP
0002C300
00453B40
00000000
00000000
00000000
0016C600
00507A00
06567100
0C400000
1E000000
2F204100
09D92000
ENDCHAR
STARTCHAR edieresis
ENCODING 235
SWIDTH 206 0
DWIDTH 6 0
BBX 7 11 0 0
BITMAP
00054270
000C2770
00000000
00000000
0016C600
00507A00
06567100
0C400000
1E000000
2F204100
09D92000
ENDCHAR
STARTCHAR igrave
ENCODING 236
SWIDTH 149 0
DWIDTH 4 0
BBX 5 12 1 0
BITMAP
023000
07E200
003810
000000
000000
049000
4A4000
1C0000
670000
B20000
E14000
D90000
ENDCHAR
STARTCHAR iacute
ENCODING 237
SWIDTH 149 0
DWIDTH 4 0
BBX 6 11 1 0
BITMAP
0006D2
005F70
00B300
000000
049000
4A4000
1C0000
670000
B20000
E14000
D90000
ENDCHAR
STARTCHAR icircumflex
ENCODING 238
SWIDTH 149 0
DWIDTH 4 0
BBX 5 12 1 0
BITMAP
00A600
262980
000000
000000
000000
049000
4A4000
1C0000
670000
B20000
E14000
D90000
ENDCHAR
STARTCHAR idieresis
ENCODING 239
SWIDTH 149 0
DWIDTH 4 0
BBX 6 11 1 0
BITMAP
017072
0781D1
000000
000000
049000
4A4000
1C0000
670000
B20000
E14000
D90000
ENDCHAR
STARTCHAR eth
ENCODING 240
SWIDTH 234 0
DWIDTH 7 0
BBX 7 19 0 0
BITMAP
00300000
07200000
0B100000
0A600000
03E20100
007B5300
003D5000
0562C000
02009400
00003A00
00000C00
00000A10
00122B30
00600830
06300920
0C000900
0E003500
1F329000
09E90000
ENDCHAR
STARTCHAR ntilde
ENCODING 241
SWIDTH 291 0
DWIDTH 8 0
BBX 9 11 0 0
BITMAP
0000CA2520
000529E700
0000000000
0000000000
02C605C800
068540A600
00C401D100
02D1078000
07700B4000
0D100D2400
49000AB200
ENDCHAR
STARTCHAR ograve
ENCODING 242
SWIDTH 225 0
DWIDTH 6 0
BBX 7 12 0 0
BITMAP
00005000
0002C900
00000750
00000000
00000000
001AE800
00914F00
06200E00
0B001A00
2B006300
1E237000
0AE80000
ENDCHAR
STARTCHAR oacute
ENCODING 243
SWIDTH 225 0
DWIDTH 6 0
BBX 7 11 0 0
BITMAP
000008C0
00007E50
0002A200
00000000
001AE800
00914F00
06200E00
0B001A00
2B006300
1E237000
0AE80000
ENDCHAR
STARTCHAR ocircumflex
ENCODING 244
SWIDTH 225 0
DWIDTH 6 0
BBX 8 12 0 0
BITMAP
00004B10
000555B3
00000000
00000000
00000000
001AE800
00914F00
06200E00
0B001A00
2B006300
1E237000
0AE80000
ENDCHAR
STARTCHAR otilde
ENCODING 245
SWIDTH 225 0
DWIDTH 6 0
BBX 8 11 0 0
BITMAP
0009C325
00347EA0
00000000
00000000
001AE800
00914F00
06200E00
0B001A00
2B006300
1E237000
0AE80000
ENDCHAR
STARTCHAR odieresis
ENCODING 246
SWIDTH 225 0
DWIDTH 6 0
BBX 7 11 0 0
BITMAP
00054270
000C2770
00000000
00000000
001AE800
00914F00
06200E00
0B001A00
2B006300
1E237000
0AE80000
ENDCHAR
STARTCHAR divide
ENCODING 247
SWIDTH 301 0
DWIDTH 8 0
BBX 7 5 1 1
BITMAP
00038000
00000000
39999940
00000000
00560000
ENDCHAR
STARTCHAR oslash
ENCODING 248
SWIDTH 225 0
DWIDTH 6 0
BBX 7 9 0 -1
BITMAP
00000160
0018DC00
00707F00
06243E00
0B161A00
2C705300
1F327000
2CD70000
40000000
ENDCHAR
STARTCHAR ugrave
ENCODING 249
SWIDTH 299 0
DWIDTH 8 0
BBX 8 12 0 0
BITMAP
00000500
00002C90
00000065
00000000
00000000
0039002A
04C300A4
03A003D0
09500890
0E204860
1F141963
0DA106D4
ENDCHAR
STARTCHAR uacute
ENCODING 250
SWIDTH 299 0
DWIDTH 8 0
BBX 9 11 0 0
BITMAP
0000004E30
000004E800
00000A4000
0000000000
0039002A00
04C300A400
03A003D000
0950089000
0E20486000
1F14196300
0DA106D400
ENDCHAR
STARTCHAR ucircumflex
ENCODING 251
SWIDTH 299 0
DWIDTH 8 0
BBX 9 12 0 0
BITMAP
000005B100
0000646B20
0000000000
0000000000
0000000000
0039002A00
04C300A400
03A003D000
0950089000
0E20486000
1F14196300
0DA106D400
ENDCHAR
STARTCHAR udieresis
ENCODING 252
SWIDTH 299 0
DWIDTH 8 0
BBX 8 11 0 0
BITMAP
00003618
0000A55A
00000000
00000000
0039002A
04C300A4
03A003D0
09500890
0E204860
1F141963
0DA106D4
ENDCHAR
STARTCHAR yacute
ENCODING 253
SWIDTH 280 0
DWIDTH 8 0
BBX 14 18 -5 -7
BITMAP
000000000002E5
00000000002DA1
00000000009600
00000000000000
000000049002B0
0000003B300870
0000002B002E20
00000085009C00
000000C2059600
000000E132D100
000000C923A000
00000000094000
000000001C0000
32000000750000
A0000001A00000
D0000008100000
A7000172000000
1AB97610000000
ENDCHAR
STARTCHAR thorn
ENCODING 254
SWIDTH 261 0
DWIDTH 7 0
BBX 8 21 -1 -7
BITMAP
00000043
000005C4
000001B0
00000660
00000B10
00004800
0000A200
0001A089
0007301F
000B001E
0036003B
008100A4
02C12980
05EEB500
09200000
0B000000
38000000
75000000
A2000000
D1000000
D8300000
ENDCHAR
STARTCHAR ydieresis
ENCODING 255
SWIDTH 280 0
DWIDTH 8 0
BBX 13 18 -5 -7
BITMAP
00000000045180
000000000B4690
00000000000000
00000000000000
000000049002B0
0000003B300870
0000002B002E20
00000085009C00
000000C2059600
000000E132D100
000000C923A000
00000000094000
000000001C0000
32000000750000
A0000001A00000
D0000008100000
A7000172000000
1AB97610000000
ENDCHAR
STARTCHAR dotlessi
ENCODING 305
SWIDTH 149 0
DWIDTH 4 0
BBX 3 7 1 0
BITMAP
0490
4A40
1C00
6700
B200
E140
D900
ENDCHAR
STARTCHAR Lslash
ENCODING 321
SWIDTH 657 0
DWIDTH 18 0
BBX 21 18 0 0
BITMAP
00000000000000018DEA00
0000000000000036204E30
0000000000000350000820
0000000000001800000700
0000000000008200000100
000000000001A000000000
0000000000086000000000
00000000000D3564000000
00000000579FA400000000
00000003309A0000000000
0000000000D50000000000
0000000002F10000000000
0000000008A00000000000
000000001E300000000000
038BDC8389000000010000
0900028ED1000000060000
1E4113846B842013820000
08EEC810017CEFD9200000
ENDCHAR
STARTCHAR lslash
ENCODING 322
SWIDTH 134 0
DWIDTH 4 0
BBX 14 21 0 0
BITMAP
00000000006CE3
00000000087374
00000000720000
00000005200000
00000024000000
00000060000000
00000420000000
00000600000000
00006752000000
00469000000000
00253000000000
00090000000000
00370000000000
00820000000000
00B00000000000
03900000000000
08500000000000
0C200000000000
0F000000000000
2F050000000000
0E910000000000
ENDCHAR
STARTCHAR OE
ENCODING 338
SWIDTH 827 0
DWIDTH 23 0
BBX 23 18 2 0
BITMAP
00000016BDFD92016668B810
000006942015CF6910001B80
0001820000000AF100000340
00181000000002E000000200
00810000000002F400000000
055000000000008F82000000
0B0000000000004CF8000000
490000000000463100000000
950000000008200000000000
D30000000093000000000000
E200000003B0000000000000
F30000000A70000000000000
F60000000D60000000000000
CB0000000E60000000006000
7F3000000C90000000035000
1DD2000006F20000000B1000
02DE831138DC200002B70000
0018CEFD9307C97777200000
ENDCHAR
STARTCHAR oe
ENCODING 339
SWIDTH 345 0
DWIDTH 10 0
BBX 10 7 0 0
BITMAP
0018D727D5
00702D5088
06200E4660
0B001D3000
2B006C0000
1E129E1050
0AD70BD920
ENDCHAR
STARTCHAR Scaron
ENCODING 352
SWIDTH 480 0
DWIDTH 13 0
BBX 14 21 1 0
BITMAP
00000000089164
00000000006C20
00000000000000
000000003ACD90
000000046001B8
00000009000039
00000039000043
0000003C000010
0000001E400000
00000008D00000
00000001D90000
000000003F4000
0000000008D000
0000000001E500
00200000007B00
09100000003D00
68000000002C00
88000000004800
7D100000009100
1CC30000172000
017CBA98600000
ENDCHAR
STARTCHAR scaron
ENCODING 353
SWIDTH 188 0
DWIDTH 5 0
BBX 7 12 0 0
BITMAP
00480020
00033100
00000000
00000000
00000000
00768200
01D04000
00D30000
005D0000
200C4000
90094000
A6670000
ENDCHAR
STARTCHAR Ydieresis
ENCODING 376
SWIDTH 662 0
DWIDTH 19 0
BBX 25 25 0 -4
BITMAP
00000000000000002324000000
0000000000000000A485000000
00000000000000000000000000
00000000017CC0000000000B40
000000001711F2000000005D00
000000003001F100000000D600
000000000004C000000006D000
000000000008800000001E6000
00000000000D300000009D0000
00000000002D00000003F60000
0000000000780000000DD00000
0000000000B40000007F500000
0000000000E1000004AC000000
0000000003C0000046E4000000
0002661006B0000459A0000000
0065000005E313843E10000000
0830000001AED810C600000000
3900000000000007A000000000
850000000000002D1000000000
B4000000000001C30000000000
B600000000000A500000000000
9A0000000001A5000000000000
3F500000003B40000000000000
07F831025A9100000000000000
004BEFEB720000000000000000
ENDCHAR
STARTCHAR Zcaron
ENCODING 381
SWIDTH 625 0
DWIDTH 18 0
BBX 19 21 1 0
BITMAP
000000000002B5261000
0000000000001C700000
00000000000000000000
000000006CEFDC962260
000000087201247AEE30
00000027000000008300
00000060000000092000
00000040000001920000
00000000000019200000
00000000000191000000
00000000001910000000
00000000029100000000
00000000291000000000
00000003910000000000
0000003A000000000000
00000490000000000000
00004900000000013000
00059000000000070000
00590000000000530000
06EDC96421014A600000
580037ADEFFD93000000
ENDCHAR
STARTCHAR zcaron
ENCODING 382
SWIDTH 248 0
DWIDTH 7 0
BBX 9 12 -1 0
BITMAP
0000670020
0000041100
0000000000
0000000000
0000000000
001BDDA800
0040028000
0000260000
0002600000
0036001100
0391006000
299DDB2000
ENDCHAR
STARTCHAR florin
ENCODING 402
SWIDTH 214 0
DWIDTH 6 0
BBX 11 12 -3 -3
BITMAP
00000005DD00
000000461810
000000A00000
000004800000
000009400000
0001BFEC8000
00011D000000
000049000000
000084000000
0000A0000000
000720000000
2B9300000000
ENDCHAR
STARTCHAR circumflex
ENCODING 710
SWIDTH 196 0
DWIDTH 5 0
BBX 5 2 0 10
BITMAP
00A600
262A80
ENDCHAR
STARTCHAR caron
ENCODING 711
SWIDTH 196 0
DWIDTH 5 0
BBX 5 2 0 10
BITMAP
2A1020
016200
ENDCHAR
STARTCHAR breve
ENCODING 728
SWIDTH 198 0
DWIDTH 6 0
BBX 5 3 0 9
BITMAP
210060
540070
052210
ENDCHAR
STARTCHAR dotaccent
ENCODING 729
SWIDTH 89 0
DWIDTH 2 0
BBX 2 2 0 9
BITMAP
2C
58
ENDCHAR
STARTCHAR ring
ENCODING 730
SWIDTH 117 0
DWIDTH 3 0
BBX 3 3 0 8
BITMAP
1770
6270
4E40
ENDCHAR
STARTCHAR ogonek
ENCODING 731
SWIDTH 124 0
DWIDTH 3 0
BBX 3 4 0 -4
BITMAP
0530
3500
6840
0410
ENDCHAR
STARTCHAR tilde
ENCODING 732
SWIDTH 222 0
DWIDTH 6 0
BBX 6 2 0 9
BITMAP
09C325
347EA0
ENDCHAR
STARTCHAR hungarumlaut
ENCODING 733
SWIDTH 253 0
DWIDTH 7 0
BBX 7 3 0 8
BITMAP
00B92D50
06D3BA10
38175000
ENDCHAR
STARTCHAR mu.dup2
ENCODING 956
SWIDTH 324 0
DWIDTH 9 0
BBX 10 12 -1 -5
BITMAP
0000570057
0001D101D1
0008600890
001E103B40
007C014D20
00CB260E22
049C800AB2
0940000000
0E10000000
3D00000000
6A00000000
1000000000
ENDCHAR
STARTCHAR endash
ENCODING 8211
SWIDTH 500 0
DWIDTH 14 0
BBX 14 1 0 4
BITMAP
5FEEEEEEFFFFF4
ENDCHAR
STARTCHAR emdash
ENCODING 8212
SWIDTH 1000 0
DWIDTH 28 0
BBX 28 1 0 4
BITMAP
5FFEEEEEEEEEEEEEEEEEEFFFFFF4
ENDCHAR
STARTCHAR quoteleft
ENCODING 8216
SWIDTH 87 0
DWIDTH 2 0
BBX 3 5 1 7
BITMAP
0040
0530
2900
6A00
3400
ENDCHAR
STARTCHAR quoteright
ENCODING 8217
SWIDTH 87 0
DWIDTH 2 0
BBX 3 5 1 7
BITMAP
0150
05C0
0380
0710
3100
ENDCHAR
STARTCHAR quotesinglbase
ENCODING 8218
SWIDTH 112 0
DWIDTH 3 0
BBX 3 4 0 -2
BITMAP
0550
0B50
0700
3100
ENDCHAR
STARTCHAR quotedblleft
ENCODING 8220
SWIDTH 167 0
DWIDTH 5 0
BBX 6 5 1 7
BITMAP
006061
071530
290B00
6A2D00
572A00
ENDCHAR
STARTCHAR quotedblright
ENCODING 8221
SWIDTH 167 0
DWIDTH 5 0
BBX 5 5 1 7
BITMAP
02A1B0
04C1E0
0380B0
071530
432500
ENDCHAR
STARTCHAR quotedblbase
ENCODING 8222
SWIDTH 192 0
DWIDTH 5 0
BBX 5 4 0 -2
BITMAP
085580
095580
090720
614300
ENDCHAR
STARTCHAR dagger
ENCODING 8224
SWIDTH 185 0
DWIDTH 5 0
BBX 7 18 0 -2
BITMAP
00000100
00003700
0000A200
0001B000
00057000
00092000
0AEFDC80
59490000
00450000
00810000
00900000
01700000
04300000
07000000
07000000
07000000
24000000
41000000
ENDCHAR
STARTCHAR daggerdbl
ENCODING 8225
SWIDTH 185 0
DWIDTH 5 0
BBX 8 19 -1 -3
BITMAP
00000010
00000270
00000920
00000B00
00004700
00009200
03CEFED9
00009000
00046000
00081000
00090000
00080000
00340000
29EEDB20
00700000
00700000
00600000
03300000
03000000
ENDCHAR
STARTCHAR bullet
ENCODING 8226
SWIDTH 207 0
DWIDTH 6 0
BBX 4 3 1 3
BITMAP
1AE8
6FFB
3ED3
ENDCHAR
STARTCHAR ellipsis
ENCODING 8230
SWIDTH 376 0
DWIDTH 11 0
BBX 10 1 0 0
BITMAP
1B304B0078
ENDCHAR
STARTCHAR perthousand
ENCODING 8240
SWIDTH 571 0
DWIDTH 16 0
BBX 16 13 0 -2
BITMAP
0000000004100000
0000000028000000
009EA00091000000
0842E00820000000
2800A04500000000
6601518033000330
4B4508188E2078D4
0330637109462076
000360A0081A0072
001902C0260D0170
008200BC700AC800
0450000000000000
0800000000000000
ENDCHAR
STARTCHAR guilsinglleft
ENCODING 8249
SWIDTH 189 0
DWIDTH 5 0
BBX 6 7 0 0
BITMAP
000054
001830
028100
3B0000
2D7000
02D600
003A00
ENDCHAR
STARTCHAR guilsinglright
ENCODING 8250
SWIDTH 176 0
DWIDTH 5 0
BBX 6 7 -1 0
BITMAP
00C500
005E10
0008C1
0001B2
003810
056000
540000
ENDCHAR
STARTCHAR fraction
ENCODING 8260
SWIDTH 220 0
DWIDTH 6 0
BBX 10 12 -1 -2
BITMAP
0000000006
0000000083
0000000740
0000005600
0000037000
0000280000
0001900000
0009100000
0072000000
0650000000
3700000000
1000000000
ENDCHAR
STARTCHAR Euro
ENCODING 8364
SWIDTH 360 0
DWIDTH 10 0
BBX 9 9 0 0
BITMAP
0001010680
0024000060
00A0000000
2DFFFF1000
1791100000
5CFFF90000
0781000000
03A0004000
0053146000
ENDCHAR
STARTCHAR trademark
ENCODING 8482
SWIDTH 389 0
DWIDTH 11 0
BBX 9 5 1 4
BITMAP
2595318070
0270068480
082062A280
0A05334190
0001000000
ENDCHAR
STARTCHAR minus
ENCODING 8722
SWIDTH 301 0
DWIDTH 8 0
BBX 7 1 1 4
BITMAP
5FFFFF70
ENDCHAR
STARTCHAR fi
ENCODING 64257
SWIDTH 297 0
DWIDTH 8 0
BBX 24 28 -9 -7
BITMAP
00000000000000000002AED2
000000000000000000572178
000000000000000005300004
000000000000000035000000
000000000000000080000000
000000000000000720000000
000000000000001900000000
000000000000008400000000
00000000000001C000000000
000000000000067000000000
0000000000000C2000600000
0000000000003C0008100000
000000000000870026000000
000000000000D20000000000
00000000009EFFEDE1000000
000000000136A00360000000
00000000000B500A10000000
00000000001E103900000000
000000000069009400000000
0000000000B300C240000000
0000000002B000BA10000000
000000000940000000000000
000000001A00000000000000
000000008200000000000000
000000036000000000000000
020000170000000000000000
180002600000000000000000
0AB863000000000000000000
ENDCHAR
STARTCHAR fl
ENCODING 64258
SWIDTH 290 0
DWIDTH 8 0
BBX 27 28 -9 -7
BITMAP
000000000000000000003302AE80
0000000000000000004CCEA94490
0000000000000000055002600000
0000000000000000450004000000
0000000000000001800040000000
0000000000000008200220000000
0000000000000029000400000000
0000000000000093004100000000
00000000000001C0005000000000
0000000000000770051000000000
0000000000000D20070000000000
0000000000004B00430000000000
0000000000009600800000000000
000000000000E102700000000000
00000000008EFEEE300000000000
0000000001379009000000000000
00000000000B401A000000000000
00000000001E0058000000000000
0000000000680086010000000000
0000000000C200B7520000000000
0000000003B0009D300000000000
0000000009400000000000000000
000000002A000000000000000000
0000000092000000000000000000
0000000360000000000000000000
0200001700000000000000000000
2700025000000000000000000000
0BA8630000000000000000000000
ENDCHAR
STARTCHAR .notdef
ENCODING -1
SWIDTH 150 0
DWIDTH 4 0
BBX 1 1 0 0
BITMAP
00
ENDCHAR
STARTCHAR .null
ENCODING -1
SWIDTH 0 0
DWIDTH 0 0
BBX 1 1 0 0
BITMAP
00
ENDCHAR
STARTCHAR nonmarkingreturn
ENCODING -1
SWIDTH 150 0
DWIDTH 4 0
BBX 1 1 0 0
BITMAP
00
ENDCHAR
ENDFONT
